<svg id="Capa_1" enable-background="new 0 0 512 512" height="512" viewBox="0 0 512 512" width="512" xmlns="http://www.w3.org/2000/svg"><g><path d="m497 100.557h-135.24l-28.496-53.46c-2.606-4.889-7.696-7.944-13.237-7.944h-128.053c-5.541 0-10.631 3.055-13.237 7.944l-28.496 53.46h-50.473v-22.393c0-8.284-6.716-15-15-15s-15 6.716-15 15v22.393h-54.768c-8.284 0-15 6.716-15 15v342.291c0 8.284 6.716 15 15 15h482c8.284 0 15-6.716 15-15v-342.291c0-8.285-6.716-15-15-15zm-334.66 186.145c0-51.645 42.016-93.661 93.66-93.661s93.66 42.016 93.66 93.661-42.016 93.66-93.66 93.66-93.66-42.015-93.66-93.66zm-6.723 72.131h-125.617v-144.262h125.618c-14.64 20.317-23.278 45.233-23.278 72.131s8.638 51.814 23.277 72.131zm200.765-144.262h125.618v144.261h-125.617c14.64-20.317 23.278-45.232 23.278-72.13-.001-26.898-8.639-51.814-23.279-72.131zm-326.382-84.014h129.242c5.541 0 10.631-3.055 13.236-7.944l28.497-53.46h110.049l28.497 53.46c2.605 4.889 7.695 7.944 13.236 7.944h129.243v54.015h-156.358c-19.848-13.577-43.832-21.53-69.642-21.53s-49.794 7.953-69.642 21.53h-156.358zm452 312.29h-452v-54.015h156.358c19.848 13.577 43.832 21.53 69.642 21.53s49.794-7.953 69.642-21.53h156.358z"/><path d="m319.319 286.702c0-34.915-28.405-63.319-63.319-63.319s-63.319 28.405-63.319 63.319 28.405 63.319 63.319 63.319 63.319-28.405 63.319-63.319zm-96.638 0c0-18.373 14.947-33.319 33.319-33.319s33.319 14.947 33.319 33.319-14.947 33.319-33.319 33.319-33.319-14.947-33.319-33.319z"/><path d="m236.759 130.557h38.482c8.284 0 15-6.716 15-15s-6.716-15-15-15h-38.482c-8.284 0-15 6.716-15 15s6.716 15 15 15z"/></g></svg>